<svg width="34" height="34" viewBox="0 0 34 34" fill="none" xmlns="http://www.w3.org/2000/svg">
<path d="M6.53933 29.7502C5.88672 29.7502 5.34225 29.532 4.90592 29.0957C4.46958 28.6593 4.25094 28.1148 4.25 27.4622V12.2047C4.25 11.5606 4.45494 10.9888 4.86483 10.4892C5.27378 9.98954 5.77717 9.61507 6.375 9.36574L21.1083 3.37891L21.5928 4.62557L8.54392 9.91682H27.4621C28.1138 9.91682 28.6578 10.1355 29.0941 10.5727C29.5304 11.01 29.7491 11.5545 29.75 12.2062V27.4622C29.75 28.1139 29.5314 28.6584 29.0941 29.0957C28.6568 29.5329 28.1128 29.7511 27.4621 29.7502H6.53933ZM6.53933 28.3335H27.4621C27.6793 28.3335 27.8791 28.2428 28.0613 28.0615C28.2436 27.8802 28.3343 27.6799 28.3333 27.4608V17.7652H5.66667V27.4637C5.66667 27.6809 5.75733 27.8806 5.93867 28.0629C6.12 28.2452 6.31975 28.3358 6.53792 28.3349M11.1152 26.047C11.9434 26.047 12.6499 25.7542 13.2345 25.1687C13.8201 24.584 14.1128 23.8776 14.1128 23.0493C14.1128 22.221 13.8201 21.5146 13.2345 20.93C12.6489 20.3454 11.9425 20.0526 11.1152 20.0517C10.2878 20.0507 9.58139 20.3435 8.99583 20.93C8.41028 21.5165 8.1175 22.2229 8.1175 23.0493C8.1175 23.8757 8.41028 24.5826 8.99583 25.1701C9.58139 25.7575 10.2878 26.0498 11.1152 26.047ZM5.66667 16.3442H23.375V13.7319H24.7917V16.3485H28.3333V12.2062C28.3333 11.988 28.2427 11.7878 28.0613 11.6055C27.88 11.4232 27.6803 11.3325 27.4621 11.3335H6.53792C6.32069 11.3335 6.12094 11.4242 5.93867 11.6055C5.75639 11.7868 5.66572 11.987 5.66667 12.2062V16.3442Z" fill="white"/>
</svg>
