<svg width="34" height="34" viewBox="0 0 34 34" fill="none" xmlns="http://www.w3.org/2000/svg">
<path d="M8.86354 10.1111L10.1117 8.86291C11.2136 7.761 12.0731 6.90151 12.8174 6.26942C13.5737 5.62731 14.2599 5.17753 15.0302 4.92609C16.3109 4.50989 17.6904 4.50989 18.971 4.92609C19.7424 5.17653 20.4276 5.62731 21.1839 6.26942C21.9282 6.90151 22.7866 7.76 23.8896 8.86291L25.1377 10.1111C26.2396 11.213 27.0991 12.0725 27.7312 12.8168C28.3733 13.5731 28.8231 14.2593 29.0745 15.0296C29.4907 16.3102 29.4907 17.6898 29.0745 18.9704C28.8241 19.7417 28.3733 20.4269 27.7312 21.1832C27.0991 21.9275 26.2406 22.786 25.1377 23.8889L23.8896 25.1371C22.7876 26.239 21.9282 27.0985 21.1839 27.7306C20.4276 28.3727 19.7414 28.8225 18.971 29.0739C17.6904 29.4901 16.3109 29.4901 15.0302 29.0739C14.2589 28.8235 13.5737 28.3727 12.8174 27.7306C12.0731 27.0985 11.2146 26.24 10.1117 25.1371L8.86354 23.8889C7.76163 22.787 6.90214 21.9275 6.27005 21.1832C5.62794 20.4269 5.17816 19.7407 4.92672 18.9704C4.51052 17.6898 4.51052 16.3102 4.92672 15.0296C5.17715 14.2583 5.62794 13.5731 6.27005 12.8168C6.90214 12.0725 7.76063 11.214 8.86354 10.1111ZM7.35092 13.7333C6.7649 14.4235 6.44435 14.9444 6.27405 15.4673C5.95029 16.4635 5.95029 17.5365 6.27405 18.5327C6.44435 19.0556 6.7649 19.5765 7.35092 20.2667C7.93994 20.9619 8.75836 21.7803 9.88831 22.9102L11.0904 24.1123C12.2204 25.2423 13.0388 26.0607 13.735 26.6507C14.4242 27.2357 14.9451 27.5563 15.468 27.7266C16.4641 28.0503 17.5372 28.0503 18.5333 27.7266C19.0562 27.5563 19.5771 27.2357 20.2673 26.6497C20.9625 26.0607 21.7809 25.2423 22.9109 24.1123L24.1129 22.9102C25.2429 21.7803 26.0613 20.9619 26.6513 20.2657C27.2364 19.5765 27.5569 19.0556 27.7272 18.5327C28.051 17.5365 28.051 16.4635 27.7272 15.4673C27.5569 14.9444 27.2364 14.4235 26.6513 13.7343C26.0613 13.0381 25.2429 12.2197 24.1129 11.0898L22.9109 9.88769C21.7809 8.75773 20.9625 7.93931 20.2673 7.35029C19.5771 6.76428 19.0562 6.44372 18.5333 6.27343C17.5372 5.94966 16.4641 5.94966 15.468 6.27343C14.9451 6.44372 14.4242 6.76428 13.735 7.34929C13.0388 7.93931 12.2204 8.75773 11.0904 9.88768L9.88831 11.0898C8.75836 12.2197 7.93994 13.0381 7.35092 13.7333Z" fill="white"/>
</svg>
