<svg width="34" height="34" viewBox="0 0 34 34" fill="none" xmlns="http://www.w3.org/2000/svg">
<path fill-rule="evenodd" clip-rule="evenodd" d="M26.6327 28.05V27.3629C26.6327 27.0385 26.2998 26.5058 26.0093 26.3642L17.991 22.4542C15.8278 21.3988 15.2937 18.8473 16.8435 17.0099L17.3535 16.4036C18.1355 15.4771 18.841 13.5504 18.841 12.3406V9.91667C18.841 7.72792 17.0645 5.95 14.8743 5.95C13.8227 5.95112 12.8144 6.3694 12.0707 7.11305C11.3271 7.8567 10.9088 8.86499 10.9077 9.91667V12.3392C10.9077 13.5518 11.6103 15.47 12.3952 16.3993L12.9052 17.0071C14.4593 18.8473 13.9181 21.3973 11.7577 22.4513L3.73935 26.3642C3.45177 26.5044 3.11602 27.0427 3.11602 27.3629V28.05H26.6327ZM1.41602 28.3333V27.3629C1.41602 26.3925 2.12152 25.262 2.99418 24.8356L11.0125 20.9228C12.1756 20.3561 12.4462 19.0981 11.6075 18.1036L11.0947 17.4958C10.052 16.2605 9.20768 13.9542 9.20768 12.3392V9.91667C9.20768 8.41377 9.8047 6.97243 10.8674 5.90973C11.9301 4.84702 13.3715 4.25 14.8743 4.25C16.3772 4.25 17.8186 4.84702 18.8813 5.90973C19.944 6.97243 20.541 8.41377 20.541 9.91667V12.3392C20.541 13.9542 19.691 16.2676 18.654 17.4987L18.1426 18.105C17.3068 19.0952 17.5674 20.3547 18.7362 20.9242L26.7545 24.837C27.6258 25.262 28.3327 26.3854 28.3327 27.3629V28.3333C28.3327 28.7091 28.1834 29.0694 27.9178 29.3351C27.6521 29.6007 27.2917 29.75 26.916 29.75H2.83268C2.45696 29.75 2.09662 29.6007 1.83095 29.3351C1.56527 29.0694 1.41602 28.7091 1.41602 28.3333ZM28.3327 20.5417H32.5827V22.2417H28.3327V20.5417ZM25.4993 16.2917H32.5827V17.9917H25.4993V16.2917ZM22.666 12.0417H32.5827V13.7417H22.666V12.0417Z" fill="white"/>
</svg>
