<svg width="24" height="24" viewBox="0 0 24 24" fill="none" xmlns="http://www.w3.org/2000/svg">
<path d="M9.45461 21.3491C8.19609 20.94 7.05456 20.2339 6.12652 19.2906C5.19848 18.3472 4.5112 17.1942 4.1228 15.9292C3.7344 14.6641 3.65628 13.3242 3.89506 12.0225C4.13383 10.7209 4.68247 9.49593 5.49461 8.4511M8.83911 5.8971C9.96484 5.42949 11.1803 5.21742 12.3979 5.27618C13.6154 5.33494 14.8048 5.66306 15.8803 6.2369C16.9557 6.81074 17.8905 7.616 18.6173 8.59466C19.344 9.57333 19.8446 10.701 20.083 11.8965C20.3214 13.0919 20.2916 14.3254 19.9958 15.5079C19.7 16.6905 19.1456 17.7927 18.3724 18.7351C17.5993 19.6776 16.6267 20.4368 15.5248 20.9581C14.4229 21.4793 13.2191 21.7497 12.0001 21.7496" stroke="white" stroke-linecap="round" stroke-linejoin="round"/>
<path d="M11.0688 2.25L8.83984 5.899L12.4893 8.128" stroke="white" stroke-linecap="round" stroke-linejoin="round"/>
</svg>
